<?xml version="1.0" encoding="UTF-8"?>
<svg width="18px" height="18px" viewBox="0 0 18 18" version="1.1" xmlns="http://www.w3.org/2000/svg" xmlns:xlink="http://www.w3.org/1999/xlink">
    <title>Group</title>
    <g id="Page-1" stroke="none" stroke-width="1" fill="none" fill-rule="evenodd">
        <g id="Group">
            <rect id="Rectangle" fill="#1769FF" fill-rule="nonzero" x="0" y="0" width="18" height="18" rx="4"></rect>
            <path d="M9,4.5 C8.5000125,4.5 8.1,4.9000125 8.1,5.4 L8.1,12.6 C8.1,13.100025 8.5000125,13.5 9,13.5 C9.4999875,13.5 9.9,13.100025 9.9,12.6 L9.9,5.4 C9.9,4.9000125 9.4999875,4.5 9,4.5 Z M5.4,6.3 C4.9000125,6.3 4.5,6.7000125 4.5,7.2 L4.5,10.8 C4.5,11.300025 4.9000125,11.7 5.4,11.7 C5.8999875,11.7 6.3,11.300025 6.3,10.8 L6.3,7.2 C6.3,6.7000125 5.8999875,6.3 5.4,6.3 Z M11.7,8.1 C11.7,7.6000125 12.1000125,7.2 12.6,7.2 C13.0999875,7.2 13.5,7.6000125 13.5,8.1 L13.5,9.9 C13.5,10.400025 13.0999875,10.8 12.6,10.8 C12.1000125,10.8 11.7,10.400025 11.7,9.9 L11.7,8.1 Z" id="Shape" fill="#FFFFFF"></path>
        </g>
    </g>
</svg>